<?xml version="1.0" standalone="no"?>
<!DOCTYPE svg PUBLIC "-//W3C//DTD SVG 20010904//EN"
 "http://www.w3.org/TR/2001/REC-SVG-20010904/DTD/svg10.dtd">
<svg version="1.0" xmlns="http://www.w3.org/2000/svg"
 width="2291.000000pt" height="2291.000000pt" viewBox="0 0 2291.000000 2291.000000"
 preserveAspectRatio="xMidYMid meet">
<metadata>
Created by potrace 1.14, written by Peter Selinger 2001-2017
</metadata>
<g transform="translate(0.000000,2291.000000) scale(0.100000,-0.100000)"
fill="#000000" stroke="none">
<path d="M12308 21495 c-2 -2 -35 -6 -73 -9 -39 -4 -81 -8 -95 -11 -40 -9
-104 -18 -122 -19 -10 0 -18 -3 -18 -6 0 -3 -8 -6 -17 -7 -35 -3 -73 -23 -73
-38 0 -8 -4 -15 -8 -15 -7 0 -12 -24 -15 -67 0 -7 -5 -13 -10 -13 -6 0 -8 -3
-5 -6 3 -3 -1 -31 -9 -62 -8 -31 -17 -65 -19 -75 -5 -28 -14 -60 -23 -82 -5
-11 -15 -40 -22 -65 -7 -25 -16 -49 -21 -54 -4 -6 -8 -22 -8 -36 0 -14 -4 -30
-9 -35 -5 -6 -14 -28 -21 -50 -7 -22 -16 -44 -19 -50 -4 -5 -7 -17 -6 -25 0
-8 -2 -17 -5 -20 -8 -7 -48 -110 -56 -142 -3 -16 -9 -28 -13 -28 -4 0 -7 -9
-8 -21 -2 -19 -18 -56 -99 -226 -19 -40 -35 -75 -34 -78 0 -3 -6 -13 -15 -21
-8 -9 -15 -24 -15 -35 0 -10 -4 -19 -9 -19 -9 0 -59 -78 -59 -94 0 -5 -4 -12
-9 -15 -12 -9 -86 -111 -80 -111 6 0 -46 -60 -95 -111 -14 -15 -23 -30 -20
-33 3 -3 1 -6 -5 -6 -5 0 -32 -20 -59 -45 -27 -25 -57 -47 -67 -51 -9 -3 -15
-10 -12 -15 4 -5 1 -9 -5 -9 -6 0 -21 -9 -33 -21 -29 -27 -174 -122 -180 -118
-2 2 -12 -2 -21 -10 -16 -13 -20 -11 -41 15 -13 16 -30 43 -36 59 -7 17 -15
32 -19 35 -3 3 -11 16 -18 30 -18 36 -36 66 -49 81 -36 46 -160 294 -161 323
0 5 -4 12 -9 15 -19 13 -85 176 -76 185 4 3 1 6 -5 6 -6 0 -14 15 -17 33 -4
17 -12 43 -18 57 -5 14 -11 31 -13 39 -2 8 -6 26 -10 40 -4 14 -7 29 -6 34 1
4 -1 7 -6 7 -4 0 -8 12 -8 28 -1 15 -4 38 -7 52 -6 24 -29 110 -66 240 -5 19
-17 60 -25 90 -9 30 -20 56 -26 58 -5 2 -8 8 -5 13 3 5 -1 21 -9 36 -8 16 -15
25 -16 21 0 -4 -16 0 -36 8 -19 8 -59 17 -87 20 -29 2 -64 6 -79 7 -16 2 -28
1 -28 -2 0 -3 -34 -7 -76 -8 -67 -1 -153 -15 -194 -30 -18 -7 -28 -10 -55 -17
-53 -12 -206 -67 -215 -76 -5 -5 -61 -33 -70 -35 -5 -1 -45 -25 -101 -62 -37
-25 -79 -74 -79 -94 0 -17 41 -132 52 -144 4 -5 8 -19 8 -31 0 -12 7 -38 15
-58 8 -20 15 -38 15 -41 0 -3 2 -10 5 -17 6 -19 32 -112 34 -120 0 -5 2 -10 2
-13 1 -3 3 -9 4 -15 1 -5 3 -11 5 -12 1 -2 3 -12 4 -23 2 -11 6 -33 9 -50 4
-16 9 -50 12 -74 3 -23 7 -46 9 -50 5 -7 10 -66 22 -246 9 -134 9 -369 0 -480
-5 -49 -9 -104 -10 -121 -2 -17 -5 -35 -8 -40 -3 -5 -9 -29 -12 -54 -3 -25
-10 -60 -15 -77 -5 -18 -8 -33 -6 -33 2 0 -2 -18 -10 -40 -8 -22 -12 -40 -8
-40 3 0 0 -7 -7 -15 -7 -8 -9 -15 -5 -15 4 0 2 -7 -5 -15 -7 -8 -9 -15 -5 -15
4 0 2 -6 -4 -14 -6 -8 -11 -18 -10 -22 3 -13 -30 -85 -47 -102 -22 -21 -52 -3
-140 84 -40 40 -75 70 -78 67 -2 -2 -7 5 -11 16 -3 12 -11 21 -16 21 -15 0
-59 42 -53 52 3 4 0 8 -6 8 -5 0 -36 28 -68 61 -31 34 -75 81 -97 105 -22 23
-56 61 -75 84 -19 23 -43 51 -53 63 -10 12 -26 34 -35 50 -9 15 -20 27 -24 27
-4 0 -8 6 -8 13 0 7 -9 19 -20 27 -11 8 -20 20 -20 28 0 7 -4 10 -10 7 -5 -3
-10 0 -10 7 0 7 -18 33 -40 57 -22 24 -40 45 -40 47 0 2 -22 36 -49 76 -65 98
-131 208 -131 219 0 5 -4 9 -10 9 -5 0 -10 9 -10 19 0 11 -4 21 -8 23 -9 3
-52 93 -52 108 0 5 -4 10 -9 10 -5 0 -14 14 -20 30 -5 17 -19 43 -30 59 -11
15 -21 34 -23 42 -2 8 -6 16 -9 19 -3 3 -12 19 -21 35 -26 51 -53 100 -58 105
-3 3 -11 16 -18 30 -7 14 -23 43 -37 65 -14 22 -28 47 -32 55 -3 8 -12 22 -19
30 -7 8 -13 20 -14 25 -9 45 -39 77 -80 85 -50 10 -530 0 -530 -11 0 -3 -25
-7 -55 -8 -59 -2 -65 -3 -175 -26 -63 -13 -131 -34 -210 -63 -8 -3 -22 -6 -31
-8 -9 -2 -29 -9 -45 -15 -16 -7 -31 -13 -34 -14 -3 0 -16 -7 -30 -15 -14 -7
-25 -12 -25 -11 0 3 -54 -16 -80 -29 -11 -5 -32 -14 -47 -20 -16 -5 -28 -14
-28 -20 0 -6 -4 -9 -10 -5 -9 5 -168 -72 -197 -96 -7 -6 -13 -8 -13 -4 0 4
-14 -5 -31 -19 -17 -14 -37 -26 -45 -26 -8 0 -17 -7 -20 -15 -4 -8 -13 -15
-20 -15 -15 0 -27 -8 -65 -42 -10 -10 -23 -18 -29 -18 -5 0 -14 -8 -19 -17 -6
-10 -11 -14 -11 -10 0 4 -11 -2 -23 -15 -13 -13 -49 -45 -80 -71 -31 -27 -59
-58 -63 -69 -3 -11 -8 -17 -11 -14 -4 3 -17 -9 -30 -26 -12 -18 -23 -28 -23
-24 0 4 -12 -7 -27 -26 -32 -38 -73 -86 -88 -102 -17 -17 -70 -108 -83 -141
-31 -77 -31 -135 0 -270 7 -27 11 -54 10 -59 -2 -4 3 -14 9 -22 6 -8 9 -14 6
-14 -6 0 4 -43 41 -162 17 -54 28 -98 25 -98 -3 0 0 -7 7 -15 6 -8 13 -24 15
-37 2 -13 11 -50 20 -83 9 -33 18 -69 21 -80 5 -25 13 -62 20 -95 14 -63 14
-63 -56 -62 -609 8 -651 3 -738 -92 -15 -16 -35 -38 -45 -48 -9 -10 -15 -18
-12 -18 7 0 -47 -94 -59 -102 -6 -4 -8 -8 -3 -8 4 0 -2 -18 -13 -40 -11 -22
-18 -40 -14 -40 4 0 2 -6 -4 -12 -5 -7 -22 -51 -37 -98 -28 -90 -33 -106 -36
-118 -23 -90 -36 -151 -44 -212 -3 -19 -7 -46 -10 -60 -3 -14 -7 -50 -10 -80
-4 -30 -8 -68 -10 -85 -7 -48 -17 -208 -20 -313 -2 -53 -4 -97 -4 -97 -3 0 -1
-162 3 -266 9 -215 24 -339 59 -484 20 -80 61 -130 122 -147 27 -7 195 -11
526 -11 l486 1 -3 -32 c-1 -17 -5 -51 -8 -76 -3 -25 -8 -72 -12 -105 -4 -33
-8 -67 -9 -75 -1 -8 -5 -40 -9 -71 -8 -67 -27 -159 -55 -259 -12 -41 -24 -83
-26 -94 -2 -10 -22 -36 -45 -58 -22 -22 -40 -43 -40 -48 0 -5 -3 -10 -7 -12
-12 -5 -83 -100 -83 -110 0 -5 -4 -6 -10 -3 -5 3 -10 0 -10 -8 0 -8 -7 -17
-15 -21 -8 -3 -15 -13 -15 -21 0 -9 -4 -14 -9 -10 -5 3 -13 -4 -16 -15 -4 -12
-19 -34 -35 -50 -15 -16 -26 -31 -24 -33 2 -2 -8 -17 -23 -33 -15 -16 -26 -30
-25 -31 5 -8 -12 -32 -19 -27 -5 3 -8 2 -7 -3 3 -8 -51 -94 -65 -104 -5 -3 -8
-9 -8 -13 1 -3 -14 -31 -34 -61 -19 -31 -35 -59 -35 -64 0 -5 -7 -14 -15 -21
-8 -7 -13 -16 -10 -20 2 -4 -4 -16 -15 -27 -10 -12 -16 -24 -13 -27 4 -3 2 -6
-4 -6 -9 0 -18 -17 -34 -68 -2 -4 -11 -16 -21 -26 -10 -11 -18 -28 -18 -37 0
-10 -3 -19 -7 -21 -7 -2 -94 -170 -98 -188 -1 -3 -7 -18 -14 -35 -7 -16 -11
-30 -9 -30 1 0 -7 -14 -19 -31 -12 -17 -19 -34 -15 -38 3 -4 1 -11 -6 -15 -7
-4 -14 -18 -15 -29 -1 -12 -5 -22 -9 -22 -4 0 -7 -3 -6 -7 1 -5 -4 -21 -11
-38 -28 -64 -64 -164 -68 -190 -2 -10 -9 -23 -16 -27 -6 -4 -9 -8 -5 -8 4 0 3
-12 -3 -27 -6 -16 -13 -39 -16 -53 -2 -13 -10 -28 -16 -32 -7 -4 -9 -8 -5 -8
4 0 0 -19 -8 -42 -8 -23 -16 -54 -18 -68 -1 -14 -7 -34 -13 -45 -8 -16 -17
-49 -27 -105 -1 -3 -4 -10 -8 -16 -4 -6 -10 -24 -13 -41 -2 -17 -16 -73 -30
-124 -13 -52 -26 -105 -29 -119 -3 -14 -8 -36 -11 -50 -3 -14 -8 -36 -11 -50
-2 -14 -9 -47 -15 -75 -6 -27 -13 -61 -15 -75 -2 -14 -11 -59 -19 -100 -8 -41
-17 -93 -20 -115 -3 -22 -7 -51 -9 -65 -3 -14 -8 -52 -11 -85 -7 -57 -9 -76
-20 -170 -11 -100 -28 -312 -40 -500 -2 -38 -4 -70 -5 -70 0 0 -3 -43 -5 -95
-3 -52 -7 -138 -10 -190 -14 -278 -21 -982 -11 -1115 2 -27 7 -95 10 -150 9
-132 15 -195 20 -225 5 -27 13 -90 21 -160 3 -25 8 -58 11 -75 3 -16 7 -39 8
-50 2 -11 8 -45 14 -75 7 -30 14 -71 17 -90 2 -19 9 -53 14 -75 6 -22 13 -56
16 -75 8 -43 10 -51 18 -70 4 -8 8 -26 9 -40 2 -14 7 -31 11 -38 5 -6 6 -12 3
-12 -2 0 0 -15 5 -32 6 -18 13 -44 16 -58 7 -35 9 -43 16 -60 3 -8 7 -26 10
-40 3 -14 19 -70 36 -125 18 -55 33 -107 36 -115 2 -8 4 -16 5 -17 2 -2 3 -6
4 -10 3 -12 27 -86 33 -103 4 -8 7 -18 7 -22 1 -3 4 -10 8 -14 5 -4 8 -13 8
-19 0 -7 8 -30 17 -51 9 -22 18 -46 19 -54 2 -8 7 -23 12 -35 6 -11 18 -40 27
-65 9 -25 22 -56 28 -70 6 -14 11 -27 12 -30 0 -3 11 -24 23 -47 12 -23 22
-50 22 -59 0 -10 3 -14 7 -11 7 8 26 -26 43 -77 6 -20 15 -36 19 -36 4 0 17
-22 29 -48 12 -26 31 -57 41 -69 11 -11 17 -24 14 -27 -4 -3 -1 -6 5 -6 7 0
12 -9 12 -20 0 -11 5 -20 12 -20 6 0 9 -3 5 -6 -6 -6 2 -19 41 -60 12 -14 22
-30 22 -35 0 -6 16 -26 35 -45 19 -18 35 -36 35 -39 0 -5 35 -46 82 -95 14
-16 29 -26 32 -22 3 3 6 1 6 -5 0 -5 21 -25 48 -43 26 -19 49 -36 52 -39 23
-25 163 -71 192 -63 10 2 42 -47 60 -93 9 -22 36 -80 59 -130 24 -49 44 -96
45 -103 2 -8 10 -22 20 -33 9 -10 14 -19 9 -19 -4 0 -2 -7 5 -15 7 -8 9 -15 5
-15 -5 0 -1 -8 7 -17 9 -10 22 -37 29 -61 7 -23 17 -42 22 -42 6 0 7 -3 4 -6
-4 -4 0 -19 7 -33 29 -56 60 -133 58 -143 -1 -5 3 -8 8 -8 6 0 10 -9 10 -20 0
-11 5 -20 10 -20 6 0 10 -7 10 -15 0 -9 8 -30 17 -48 9 -18 16 -35 15 -39 -1
-5 3 -8 8 -8 5 0 10 -3 9 -7 -2 -16 14 -53 22 -53 5 0 9 -7 9 -15 0 -9 12 -39
27 -68 15 -29 27 -54 28 -57 0 -3 6 -15 13 -28 7 -12 10 -22 6 -22 -4 0 0 -8
8 -17 8 -10 30 -54 49 -98 42 -99 133 -279 177 -350 4 -5 7 -12 7 -15 0 -3 9
-18 19 -35 11 -16 30 -47 43 -67 12 -21 23 -42 23 -47 0 -6 7 -14 15 -19 9 -4
17 -19 20 -32 2 -13 8 -26 12 -29 12 -9 73 -111 73 -122 0 -5 5 -9 10 -9 6 0
10 -7 10 -15 0 -8 5 -15 10 -15 6 0 10 -5 10 -11 0 -6 14 -31 30 -56 17 -24
30 -48 30 -54 0 -5 5 -9 10 -9 6 0 10 -7 10 -15 0 -8 5 -15 10 -15 6 0 10 -4
10 -10 0 -13 99 -164 111 -168 5 -2 9 -9 9 -17 0 -7 7 -18 15 -25 9 -7 13 -15
10 -18 -2 -3 8 -22 23 -42 56 -77 78 -104 99 -127 12 -12 20 -23 17 -23 -6 0
10 -19 48 -60 16 -15 28 -32 28 -36 0 -3 8 -14 18 -23 9 -9 33 -36 52 -61 19
-25 38 -47 42 -48 4 -2 8 -10 8 -18 0 -9 4 -12 10 -9 5 3 10 -1 10 -9 0 -9 9
-21 20 -28 11 -7 20 -18 20 -25 0 -7 5 -13 11 -13 5 0 7 -4 4 -10 -3 -5 1 -10
10 -10 9 0 13 -4 10 -10 -3 -5 -2 -10 2 -10 5 0 15 -11 23 -24 16 -25 75 -96
130 -156 19 -20 62 -68 95 -106 33 -37 68 -76 78 -86 9 -10 17 -20 17 -22 0
-2 18 -22 40 -45 22 -22 40 -46 40 -51 0 -6 7 -10 15 -10 8 0 15 -4 15 -8 0
-15 285 -295 404 -397 6 -5 34 -30 61 -55 28 -25 72 -63 99 -85 28 -22 58 -48
68 -58 10 -9 22 -17 28 -17 6 0 10 -6 10 -14 0 -8 9 -18 20 -21 11 -4 18 -11
15 -16 -4 -5 0 -9 9 -9 8 0 16 -4 18 -8 2 -5 39 -37 83 -73 43 -35 92 -76 109
-91 16 -16 35 -28 43 -28 8 0 11 -5 8 -10 -3 -6 -2 -10 3 -10 4 0 23 -12 40
-27 17 -16 46 -39 64 -53 18 -14 40 -33 50 -43 10 -9 22 -17 27 -17 5 0 11 -3
13 -8 5 -11 118 -105 118 -98 0 3 26 -21 58 -54 32 -33 64 -60 71 -60 7 0 9
-5 6 -10 -3 -6 -1 -10 4 -10 6 0 20 -8 32 -18 11 -9 33 -27 47 -39 15 -13 33
-23 40 -23 7 0 10 -4 7 -10 -3 -5 -1 -10 4 -10 10 0 36 -19 66 -48 8 -6 18
-12 23 -12 6 0 13 -7 16 -16 4 -9 9 -14 12 -11 3 2 16 -5 29 -17 52 -47 88
-76 96 -76 4 0 23 -14 41 -30 18 -17 45 -36 61 -43 15 -6 27 -18 27 -24 0 -7
3 -12 8 -11 4 2 23 -9 43 -25 20 -15 41 -27 47 -27 7 0 12 -4 12 -8 0 -5 12
-15 27 -23 15 -8 38 -25 52 -38 15 -13 33 -26 41 -30 8 -3 46 -27 85 -51 38
-25 71 -44 73 -42 2 2 12 -6 22 -18 10 -12 21 -21 24 -22 18 0 46 -11 46 -18
0 -4 10 -11 23 -15 12 -4 24 -8 27 -9 3 -1 21 -12 40 -24 19 -12 41 -22 48
-22 6 0 12 -4 12 -8 0 -5 16 -14 35 -22 19 -8 35 -18 35 -22 0 -5 5 -6 10 -3
5 3 10 1 10 -5 0 -6 4 -8 10 -5 5 3 10 1 10 -5 0 -6 4 -8 10 -5 5 3 10 1 10
-5 0 -6 4 -8 10 -5 5 3 10 2 10 -2 0 -8 43 -28 64 -30 5 -1 12 -5 15 -10 3 -4
35 -22 71 -39 36 -17 93 -45 127 -61 35 -17 60 -26 56 -19 -3 6 3 3 14 -7 11
-9 23 -17 27 -17 4 0 32 -11 62 -25 30 -14 59 -25 64 -25 6 0 10 -4 10 -10 0
-5 7 -10 15 -10 8 0 23 -4 33 -9 37 -20 91 -41 104 -41 7 0 24 -7 36 -16 12
-8 22 -13 22 -10 0 3 19 -2 43 -10 23 -9 49 -17 57 -19 8 -2 27 -8 43 -14 15
-6 27 -9 27 -6 0 2 16 -3 35 -11 19 -8 35 -12 35 -9 0 3 8 1 18 -4 9 -5 31
-11 47 -14 17 -3 39 -8 50 -11 41 -10 163 -36 200 -42 20 -3 47 -8 59 -10 22
-5 48 -8 127 -19 25 -3 57 -8 70 -10 13 -2 56 -6 94 -9 39 -3 86 -9 105 -12
37 -7 1241 -6 1760 2 168 2 370 4 450 5 80 0 157 3 171 5 l25 5 0 234 c-1 129
-5 235 -9 235 -5 0 -6 4 -2 9 4 8 7 92 4 151 -1 8 -1 49 0 90 1 41 1 102 0
135 -1 33 0 65 1 70 2 9 0 66 -4 143 -1 17 2 32 6 32 4 0 5 7 2 15 -8 19 -11
874 -4 884 9 11 790 8 782 -3 -3 -7 0 -7 9 0 9 7 69 12 164 12 83 1 171 3 198
4 26 2 47 -1 47 -5 0 -5 5 -5 12 -1 11 7 128 9 660 13 l128 1 -1 158 c0 86 0
162 1 167 1 6 1 15 0 20 -5 25 -5 95 1 95 3 0 3 21 -1 47 -4 27 -4 55 1 64 4
9 6 19 3 21 -7 8 -9 116 -2 123 3 4 3 19 -1 33 -3 15 -5 38 -4 52 3 42 4 64 1
95 -2 17 0 45 3 63 4 18 3 32 -3 32 -5 0 -7 4 -4 8 6 10 8 109 3 145 -2 15 -1
30 3 32 4 3 5 20 1 37 -4 18 -4 47 -1 63 3 17 3 49 -1 72 -3 27 -2 44 5 47 7
3 6 5 -2 5 -7 1 -10 6 -6 12 8 14 8 194 -1 208 -3 6 -3 11 2 11 8 0 7 95 -1
117 -3 7 -2 13 2 13 4 0 7 46 6 103 0 56 2 107 3 113 4 11 59 15 188 16 33 0
65 -1 70 -2 6 -1 15 -1 20 0 19 4 117 0 126 -6 5 -3 9 -2 9 3 0 4 28 7 62 5
65 -3 108 -2 191 1 27 1 51 -1 54 -5 2 -5 9 -6 14 -2 15 9 149 11 155 2 3 -5
11 -5 17 -1 6 4 164 8 350 10 186 1 342 5 348 8 5 4 9 2 9 -3 0 -6 8 -8 18 -6
9 2 100 5 202 7 l185 3 1 929 c1 845 4 1006 19 1100 3 17 7 46 10 65 2 19 4
35 5 35 1 0 3 16 5 35 2 19 6 49 9 65 12 66 34 268 40 375 2 19 6 49 9 65 4
17 9 50 13 75 3 25 8 59 10 75 10 67 21 394 29 805 2 157 7 326 10 375 3 50 7
127 9 171 2 45 6 86 10 93 4 6 2 11 -4 11 -6 0 -8 5 -4 12 18 29 18 628 -1
823 -3 33 -7 80 -10 105 -2 25 -7 72 -10 105 -3 33 -8 85 -11 115 -7 88 -12
134 -17 156 -3 13 3 31 17 47 12 14 31 43 42 64 10 21 24 41 29 45 6 4 6 8 1
8 -5 0 -2 8 7 18 8 9 16 22 18 27 1 9 18 46 70 163 11 24 17 48 14 53 -4 5 -2
9 4 9 7 0 46 102 56 150 1 3 7 23 13 45 19 67 52 236 59 305 13 124 7 432 -11
565 -14 98 -19 132 -22 150 -3 11 -7 36 -10 55 -3 19 -10 42 -15 51 -4 9 -6
19 -3 22 6 6 1 26 -47 187 -10 36 -21 79 -23 95 -4 33 -82 233 -98 253 -6 6
-7 12 -3 12 4 0 2 6 -4 13 -6 8 -8 17 -4 20 3 4 1 7 -6 7 -7 0 -10 4 -7 9 4 5
3 11 -1 13 -10 4 -47 80 -45 91 1 4 -2 7 -8 7 -6 0 -9 3 -8 8 2 9 -13 45 -22
52 -10 8 -50 95 -50 108 0 7 -4 12 -9 12 -7 0 -22 36 -20 49 0 2 -3 7 -9 10
-5 3 -22 28 -38 54 -16 27 -36 59 -44 72 -8 13 -33 52 -54 87 -22 35 -43 65
-48 66 -4 2 -8 9 -8 14 0 6 -7 18 -15 27 -19 20 -115 150 -115 156 0 3 -8 13
-17 23 -42 43 -83 92 -83 98 0 3 -11 15 -26 26 -14 11 -23 23 -20 25 7 7 -225
233 -238 233 -5 0 -45 33 -77 63 -10 9 -22 17 -25 17 -3 0 -25 14 -49 30 -24
17 -48 30 -54 30 -6 0 -11 4 -11 10 0 8 -55 38 -80 44 -3 1 -14 7 -26 13 -11
7 -33 14 -47 17 -15 2 -30 7 -35 10 -5 3 -22 7 -38 10 -16 3 -59 10 -97 17
-37 6 -74 9 -82 5 -8 -3 -15 -2 -15 2 0 8 -110 7 -180 -2 -25 -3 -65 -8 -90
-11 -25 -3 -69 -10 -99 -15 -99 -18 -103 -17 -136 53 -16 34 -29 64 -30 67 0
3 -8 22 -18 43 -10 21 -20 45 -22 55 -2 9 -11 37 -20 61 -30 83 -43 181 -40
310 3 117 5 145 20 211 3 14 8 41 11 60 4 19 11 41 17 48 5 6 7 12 4 12 -4 0
5 30 19 66 14 37 23 69 20 71 -3 3 6 22 19 43 13 21 21 41 18 44 -4 3 -2 6 4
6 5 0 10 6 10 13 0 23 45 80 133 165 99 97 101 99 160 137 25 17 47 32 50 35
8 8 41 28 78 46 17 9 32 19 32 23 0 4 16 13 35 21 19 8 35 17 35 20 0 4 17 15
37 26 21 10 44 25 51 32 8 7 17 10 22 7 5 -3 10 0 12 5 2 6 10 12 18 14 8 1
69 29 135 62 66 32 123 57 128 56 4 -1 7 2 7 7 0 5 12 12 26 15 14 4 45 15 68
25 74 33 231 94 244 94 6 0 12 3 12 7 0 3 10 6 21 7 12 1 31 10 42 20 11 10
17 13 14 6 -5 -7 4 -6 23 4 17 8 36 16 43 17 7 2 53 15 102 31 50 16 93 30 98
31 4 1 9 3 12 4 3 1 10 4 15 5 6 1 11 3 13 5 1 1 9 3 17 5 8 1 33 7 55 13 22
6 74 14 115 17 41 4 80 12 86 18 17 18 66 107 59 107 -4 0 2 12 13 28 11 15
19 29 19 32 -2 5 29 93 44 125 10 23 57 202 61 237 2 13 7 29 11 36 5 6 4 12
-2 12 -7 0 -7 8 -1 24 12 33 3 367 -10 384 -3 3 -5 11 -14 67 -4 28 -13 56
-18 63 -6 6 -8 12 -5 12 3 0 1 15 -4 33 -6 17 -12 43 -15 57 -8 37 -33 115
-64 195 -33 86 -39 104 -40 110 0 3 -12 29 -27 58 -15 28 -27 54 -28 57 0 3
-6 15 -13 28 -7 12 -9 22 -5 22 4 0 3 4 -3 8 -13 9 -44 71 -44 89 0 7 -4 13
-10 13 -5 0 -9 3 -8 8 2 10 -24 62 -32 62 -3 0 -12 16 -19 35 -7 19 -17 35
-22 35 -5 0 -9 7 -9 15 0 9 -7 18 -15 21 -8 4 -13 9 -11 13 3 4 -13 31 -35 59
-21 29 -39 55 -39 57 0 6 -36 49 -67 82 -12 13 -19 23 -16 23 7 0 -81 84 -128
122 -19 15 -40 28 -46 28 -7 0 -13 5 -13 11 0 5 -4 7 -10 4 -5 -3 -10 -3 -10
2 0 4 -21 16 -48 26 -26 11 -56 23 -67 27 -18 7 -48 16 -95 27 -24 5 -93 5
-118 -1 -13 -3 -44 -17 -69 -31 -25 -14 -51 -25 -58 -25 -7 0 -18 -6 -24 -14
-7 -8 -25 -17 -40 -21 -16 -3 -37 -14 -47 -23 -11 -10 -39 -28 -64 -40 -25
-12 -61 -32 -80 -44 -55 -33 -133 -78 -157 -90 -13 -6 -23 -15 -23 -20 0 -5
-4 -6 -10 -3 -5 3 -10 1 -10 -6 0 -7 -3 -9 -7 -6 -3 4 -12 2 -20 -4 -15 -13
-82 -51 -133 -77 -19 -9 -41 -23 -48 -29 -7 -7 -20 -13 -27 -13 -8 0 -18 -8
-24 -17 -5 -10 -13 -17 -18 -16 -15 5 -43 -8 -43 -19 0 -6 -2 -9 -6 -6 -3 3
-24 -5 -47 -18 -57 -31 -127 -64 -139 -64 -5 0 -6 -4 -3 -10 3 -5 1 -11 -4
-11 -6 -1 -14 -3 -18 -4 -5 -2 -18 -6 -30 -10 -13 -4 -23 -11 -23 -16 0 -5 -3
-9 -7 -8 -16 2 -53 -14 -53 -23 0 -5 -4 -7 -9 -3 -5 3 -17 -5 -25 -17 -9 -12
-16 -19 -16 -14 0 5 -6 3 -14 -3 -12 -10 -154 -83 -166 -86 -3 0 -15 -6 -26
-13 -12 -6 -24 -8 -28 -5 -3 3 -6 1 -6 -5 0 -7 -4 -12 -9 -12 -6 0 -49 -18
-96 -40 -47 -22 -90 -40 -96 -40 -5 0 -9 -4 -9 -8 0 -5 -6 -9 -12 -9 -7 0 -39
-12 -71 -26 -32 -15 -64 -27 -71 -27 -7 0 -19 -7 -26 -15 -7 -9 -15 -13 -18
-10 -3 3 -15 -1 -26 -8 -38 -25 -62 -26 -77 -5 -8 11 -20 27 -27 34 -7 8 -10
14 -5 14 4 1 -3 10 -16 20 -13 11 -20 20 -16 20 5 0 -4 11 -18 24 -14 13 -24
26 -21 28 2 3 -34 45 -81 94 -46 49 -85 95 -85 102 0 6 -4 12 -8 12 -4 0 -23
15 -43 33 -19 17 -51 43 -72 57 -20 14 -37 28 -37 33 0 4 -5 7 -10 7 -12 0
-73 41 -78 53 -2 4 -10 7 -18 7 -8 0 -14 5 -14 11 0 5 -4 7 -10 4 -5 -3 -10
-2 -10 3 0 5 -18 17 -40 27 -22 10 -40 23 -40 28 0 6 -2 8 -5 5 -3 -3 -74 28
-158 69 -84 42 -154 75 -157 75 -3 0 -17 9 -32 19 -14 10 -31 19 -37 19 -6 0
-11 5 -11 10 0 6 -6 10 -13 10 -7 0 -23 9 -35 20 -12 12 -22 18 -22 14 0 -4
-11 5 -25 20 -13 14 -29 26 -34 26 -5 0 -16 8 -23 18 -7 9 -24 23 -38 30 -28
14 -127 102 -115 102 5 0 -2 9 -15 20 -19 17 -24 30 -24 78 0 31 3 66 8 77 5
11 10 27 12 36 8 37 164 303 193 329 4 3 19 23 36 45 16 22 37 47 47 56 10 9
15 19 11 22 -3 4 2 9 11 13 9 3 16 12 16 19 0 7 7 15 15 19 8 3 15 12 15 21 0
8 4 15 10 15 5 0 16 12 24 28 8 15 15 23 16 17 0 -5 8 4 18 22 15 27 52 76 88
116 50 57 82 137 53 137 -5 0 -7 4 -4 10 3 5 -8 22 -26 37 -17 16 -40 36 -50
46 -10 9 -24 17 -29 17 -6 0 -20 8 -30 18 -11 10 -39 28 -62 39 -70 34 -142
67 -153 69 -6 1 -49 11 -95 22 -83 20 -138 30 -210 38 -19 2 -48 6 -65 9 -16
3 -82 8 -145 11 l-115 6 -38 -42 c-20 -23 -37 -39 -37 -36 0 3 -25 -19 -55
-49 -30 -29 -55 -59 -55 -65 0 -6 -4 -8 -10 -5 -5 3 -10 2 -10 -3 0 -5 -22
-32 -50 -61 -27 -29 -50 -54 -50 -57 0 -3 -11 -17 -25 -32 -14 -15 -25 -31
-25 -35 0 -5 -6 -14 -12 -21 -7 -8 -20 -24 -28 -36 -8 -12 -21 -29 -28 -36 -7
-8 -11 -14 -8 -14 3 0 -5 -10 -17 -23 -23 -25 -33 -37 -82 -102 -27 -37 -55
-71 -80 -99 -5 -6 -23 -29 -40 -51 -26 -35 -44 -56 -100 -116 -8 -9 -15 -20
-15 -25 0 -5 -16 -20 -34 -34 -19 -14 -33 -28 -33 -31 2 -6 -61 -81 -129 -155
-23 -24 -40 -44 -38 -44 2 0 -5 -9 -17 -21 -20 -20 -21 -20 -34 -2 -8 10 -15
26 -15 35 0 9 -5 20 -10 23 -6 4 -8 11 -5 16 4 5 3 14 -1 20 -14 24 -19 170
-9 304 4 50 8 117 10 150 2 33 5 60 6 60 2 0 5 45 13 170 3 50 8 124 11 165 3
41 6 103 8 137 1 35 6 63 10 63 5 0 5 5 1 11 -10 17 1 383 12 401 7 11 -77 89
-87 82 -5 -3 -9 0 -9 5 0 6 -8 11 -18 11 -10 0 -23 5 -29 11 -7 7 -27 13 -45
14 -18 2 -33 4 -33 5 0 1 -9 4 -20 5 -11 2 -40 6 -65 10 -50 7 -376 16 -382
10z"/>
</g>
</svg>
